<mxfile host="65bd71144e">
    <diagram id="7jXsa-NVI8YZZgEV07pc" name="Page-1">
        <mxGraphModel dx="1055" dy="787" grid="1" gridSize="10" guides="1" tooltips="1" connect="1" arrows="1" fold="1" page="1" pageScale="1" pageWidth="827" pageHeight="1169" math="0" shadow="0">
            <root>
                <mxCell id="0"/>
                <mxCell id="1" parent="0"/>
                <mxCell id="2" value="" style="shape=umlLifeline;participant=umlActor;perimeter=lifelinePerimeter;whiteSpace=wrap;html=1;container=1;collapsible=0;recursiveResize=0;verticalAlign=top;spacingTop=36;outlineConnect=0;" vertex="1" parent="1">
                    <mxGeometry x="170" y="160" width="20" height="360" as="geometry"/>
                </mxCell>
                <mxCell id="3" value="System" style="shape=umlLifeline;perimeter=lifelinePerimeter;whiteSpace=wrap;html=1;container=1;collapsible=0;recursiveResize=0;outlineConnect=0;" vertex="1" parent="1">
                    <mxGeometry x="520" y="170" width="100" height="390" as="geometry"/>
                </mxCell>
                <mxCell id="4" value="Le système rend l'interface de connexion" style="html=1;verticalAlign=bottom;endArrow=open;dashed=1;endSize=8;rounded=0;labelBackgroundColor=#F4F1DE;strokeColor=#FFFFFF;fontColor=#393C56;" edge="1" parent="3" target="2">
                    <mxGeometry relative="1" as="geometry">
                        <mxPoint x="50" y="110" as="sourcePoint"/>
                        <mxPoint x="-30" y="110" as="targetPoint"/>
                    </mxGeometry>
                </mxCell>
                <mxCell id="5" value="" style="html=1;points=[];perimeter=orthogonalPerimeter;" vertex="1" parent="3">
                    <mxGeometry x="50" y="70" width="10" height="80" as="geometry"/>
                </mxCell>
                <mxCell id="6" value="System" style="html=1;" vertex="1" parent="3">
                    <mxGeometry y="350" width="100" height="40" as="geometry"/>
                </mxCell>
                <mxCell id="7" value="L'utilsateur se rend sur la page login de l'application" style="html=1;verticalAlign=bottom;endArrow=block;rounded=0;labelBackgroundColor=#F4F1DE;fontColor=#393C56;" edge="1" parent="1" target="3">
                    <mxGeometry width="80" relative="1" as="geometry">
                        <mxPoint x="180" y="240" as="sourcePoint"/>
                        <mxPoint x="260" y="240" as="targetPoint"/>
                    </mxGeometry>
                </mxCell>
                <mxCell id="8" value="L'utilisateur renseigne les différents input puis soumet le formulaire" style="html=1;verticalAlign=bottom;endArrow=block;rounded=0;labelBackgroundColor=#F4F1DE;fontColor=#393C56;" edge="1" parent="1" target="3">
                    <mxGeometry width="80" relative="1" as="geometry">
                        <mxPoint x="180" y="319.6600000000001" as="sourcePoint"/>
                        <mxPoint x="260" y="319.66" as="targetPoint"/>
                    </mxGeometry>
                </mxCell>
                <mxCell id="9" value="alt" style="shape=umlFrame;whiteSpace=wrap;html=1;" vertex="1" parent="1">
                    <mxGeometry x="160" y="330" width="430" height="180" as="geometry"/>
                </mxCell>
                <mxCell id="10" value="" style="line;strokeWidth=1;align=left;verticalAlign=middle;spacingTop=-1;spacingLeft=3;spacingRight=3;rotatable=0;labelPosition=right;points=[];portConstraint=eastwest;labelBackgroundColor=#F4F1DE;" vertex="1" parent="1">
                    <mxGeometry x="160" y="391" width="430" height="8" as="geometry"/>
                </mxCell>
                <mxCell id="11" value="[Connexion réussie]" style="text;align=center;fontStyle=1;verticalAlign=middle;spacingLeft=3;spacingRight=3;rotatable=0;points=[[0,0.5],[1,0.5]];portConstraint=eastwest;" vertex="1" parent="1">
                    <mxGeometry x="320" y="330" width="80" height="26" as="geometry"/>
                </mxCell>
                <mxCell id="12" value="Donne accès à l'application" style="html=1;verticalAlign=bottom;endArrow=open;dashed=1;endSize=8;rounded=0;labelBackgroundColor=#F4F1DE;fontColor=#393C56;" edge="1" parent="1">
                    <mxGeometry relative="1" as="geometry">
                        <mxPoint x="570.0900000000001" y="380" as="sourcePoint"/>
                        <mxPoint x="179.9003448275862" y="380" as="targetPoint"/>
                    </mxGeometry>
                </mxCell>
                <mxCell id="13" value="[Connexion échouée]" style="text;align=center;fontStyle=1;verticalAlign=middle;spacingLeft=3;spacingRight=3;rotatable=0;points=[[0,0.5],[1,0.5]];portConstraint=eastwest;" vertex="1" parent="1">
                    <mxGeometry x="320" y="399" width="80" height="26" as="geometry"/>
                </mxCell>
                <mxCell id="14" value="loop" style="shape=umlFrame;whiteSpace=wrap;html=1;" vertex="1" parent="1">
                    <mxGeometry x="170" y="430" width="410" height="70" as="geometry"/>
                </mxCell>
                <mxCell id="15" value="[Tant que les identifiants sont incorrects]" style="text;align=center;fontStyle=1;verticalAlign=middle;spacingLeft=3;spacingRight=3;rotatable=0;points=[[0,0.5],[1,0.5]];portConstraint=eastwest;" vertex="1" parent="1">
                    <mxGeometry x="320" y="430" width="80" height="26" as="geometry"/>
                </mxCell>
                <mxCell id="16" value="Renvoie un message d'erreur" style="html=1;verticalAlign=bottom;endArrow=open;dashed=1;endSize=8;rounded=0;labelBackgroundColor=#F4F1DE;fontColor=#393C56;" edge="1" parent="1">
                    <mxGeometry relative="1" as="geometry">
                        <mxPoint x="570.0900000000001" y="480" as="sourcePoint"/>
                        <mxPoint x="179.9003448275862" y="480" as="targetPoint"/>
                    </mxGeometry>
                </mxCell>
                <mxCell id="17" value="Utilisateur" style="shape=umlActor;verticalLabelPosition=bottom;verticalAlign=top;html=1;" vertex="1" parent="1">
                    <mxGeometry x="171.25" y="520" width="17.5" height="40" as="geometry"/>
                </mxCell>
                <mxCell id="18" value="Utilisateur" style="text;html=1;align=center;verticalAlign=middle;resizable=0;points=[];autosize=1;" vertex="1" parent="1">
                    <mxGeometry x="142.5" y="130" width="80" height="30" as="geometry"/>
                </mxCell>
            </root>
        </mxGraphModel>
    </diagram>
</mxfile>